<svg version="1.1" id="Layer_1" xmlns="http://www.w3.org/2000/svg" xmlns:xlink="http://www.w3.org/1999/xlink" x="0px" y="0px"
	 width="100%" viewBox="0 0 490 490" enable-background="new 0 0 490 490" xml:space="preserve">
<path fill="#FFFFFF" opacity="1.000000" stroke="none" 
	d="
M325.000000,491.000000 
	C216.666687,491.000000 108.833382,491.000000 1.000058,491.000000 
	C1.000039,327.666718 1.000039,164.333466 1.000019,1.000146 
	C164.333237,1.000097 327.666473,1.000097 490.999756,1.000049 
	C490.999847,164.333191 490.999847,327.666382 490.999939,490.999786 
	C435.833344,491.000000 380.666656,491.000000 325.000000,491.000000 
M132.854858,323.711456 
	C133.132767,323.914917 133.410660,324.118408 133.666641,324.151276 
	C133.666641,324.151276 133.614716,324.315247 133.739471,324.957855 
	C134.837952,326.290497 135.936432,327.623169 136.998749,328.998322 
	C136.998749,328.998322 137.044250,328.966766 137.233917,329.612061 
	C139.306015,331.872772 141.378098,334.133514 143.535553,336.374969 
	C143.535553,336.374969 143.561661,336.458496 143.751053,337.031158 
	C144.483078,337.723755 145.215118,338.416351 146.205215,339.720459 
	C151.419556,344.168610 156.633896,348.616730 162.215118,353.634430 
	C167.131485,356.777740 172.047836,359.921051 176.994247,363.000793 
	C176.994247,363.000793 176.936508,363.040894 177.306091,363.619812 
	C187.856171,367.829895 198.406250,372.039948 209.543945,376.750031 
	C210.051224,376.800903 210.558487,376.851776 211.699783,377.294159 
	C227.941132,381.668884 244.474075,382.546814 261.097351,380.718964 
	C275.667267,379.116882 289.895569,375.915741 303.764740,368.974335 
	C304.173218,368.738129 304.581696,368.501953 305.310944,368.324005 
	C305.553619,368.286499 305.708191,368.149475 306.483276,367.775879 
	C358.543945,340.540955 385.381073,297.591980 385.679291,238.801422 
	C385.736298,227.558853 382.524719,216.299713 380.888428,204.279083 
	C363.987610,149.931656 327.868744,115.766312 272.175018,104.365463 
	C232.082016,96.158180 194.862762,105.117447 161.273315,130.113876 
	C160.060623,131.254471 158.847946,132.395065 157.694061,133.597809 
	C157.694061,133.597809 157.612961,133.625031 157.134216,133.742462 
	C156.809143,133.907959 156.641159,134.172989 156.577194,134.586655 
	C156.577194,134.586655 156.515015,134.549789 155.896240,134.673904 
	C154.839874,135.694595 153.783508,136.715286 152.805786,137.887497 
	C152.805786,137.887497 152.796082,137.717087 152.205032,137.885376 
	C151.686188,138.489227 151.167358,139.093063 150.745499,139.615433 
	C150.745499,139.615433 150.625214,139.655182 150.012589,139.855759 
	C148.348984,141.571823 146.685379,143.287903 144.997681,144.997589 
	C144.997681,144.997589 145.004013,145.021729 144.386719,145.266846 
	C142.550674,147.481674 140.714615,149.696503 138.976120,151.997482 
	C138.976120,151.997482 138.904739,151.888687 138.315582,152.184265 
	C136.900055,154.122009 135.484528,156.059738 133.815140,158.165726 
	C133.815140,158.165726 133.751770,158.463593 133.152634,158.815491 
	C131.302368,161.769974 129.452118,164.724457 127.670265,167.787308 
	C127.670265,167.787308 127.696899,167.661957 127.082840,167.926956 
	C113.844131,188.678726 106.681221,211.441681 106.278763,235.962540 
	C106.092987,247.281433 108.111450,258.636505 109.072319,270.670776 
	C109.183823,271.118652 109.295334,271.566528 109.384750,272.760864 
	C111.528419,279.575897 112.961838,286.725922 115.981598,293.127686 
	C120.553291,302.819519 126.229103,311.990540 131.524979,321.317902 
	C131.524979,321.317902 131.517395,321.427979 131.620834,321.990601 
	C132.001633,322.401276 132.382431,322.811981 132.939255,323.058807 
	C132.939255,323.058807 132.734833,323.185455 132.854858,323.711456 
z"/>
<path fill="#249CD0" opacity="1.000000" stroke="none" 
	d="
M304.990173,368.265747 
	C304.581696,368.501953 304.173218,368.738129 303.181671,368.725647 
	C298.173187,369.878906 293.771179,371.361725 289.313446,372.652069 
	C286.702881,373.407715 283.995972,373.824707 281.345398,374.449188 
	C273.567383,376.281738 265.868683,379.220245 258.005585,379.751068 
	C244.522827,380.661346 230.918930,380.505859 217.599152,377.150116 
	C215.531799,376.629272 213.248947,376.963745 211.065765,376.902649 
	C210.558487,376.851776 210.051224,376.800903 209.138611,376.216125 
	C207.567947,375.098816 206.435669,374.433838 205.231659,373.945831 
	C199.263657,371.526825 193.292511,369.113861 187.290314,366.781494 
	C183.870865,365.452759 180.389816,364.282532 176.936493,363.040894 
	C176.936508,363.040894 176.994247,363.000793 176.950485,362.685333 
	C174.214813,360.326599 171.269119,358.535980 168.907471,356.163910 
	C166.841537,354.088898 165.015656,352.276306 161.848236,353.064880 
	C156.633896,348.616730 151.419556,344.168610 146.070343,339.065094 
	C145.144211,337.759308 144.352936,337.108887 143.561676,336.458496 
	C143.561661,336.458496 143.535553,336.374969 143.636841,336.029724 
	C141.506851,333.445251 139.275558,331.205994 137.044250,328.966766 
	C137.044250,328.966766 136.998749,328.998322 137.015320,328.618317 
	C135.892838,326.930634 134.753769,325.622925 133.614716,324.315247 
	C133.614716,324.315247 133.666641,324.151276 133.675476,323.944000 
	C133.367813,323.552979 133.051315,323.369232 132.734833,323.185455 
	C132.734833,323.185455 132.939255,323.058807 132.900421,322.797119 
	C132.413544,322.166260 131.965469,321.797119 131.517395,321.427979 
	C131.517395,321.427979 131.524979,321.317902 131.656601,320.977539 
	C130.224518,317.845459 128.400528,315.165741 127.142578,312.242462 
	C121.958237,300.194733 116.967957,288.063690 111.840080,275.991394 
	C111.239082,274.576477 110.227875,273.335846 109.406845,272.014404 
	C109.295334,271.566528 109.183823,271.118652 109.363899,270.034302 
	C109.753235,267.915222 110.012543,266.422760 109.922653,264.951630 
	C109.317192,255.041519 108.208488,245.141541 108.078789,235.227600 
	C107.863113,218.741470 112.525253,203.175583 118.549690,188.025742 
	C121.296722,181.117706 124.629692,174.442673 127.696899,167.661957 
	C127.696899,167.661957 127.670265,167.787308 128.001633,167.731110 
	C130.139252,164.604462 131.945511,161.534027 133.751770,158.463593 
	C133.751770,158.463593 133.815140,158.165726 134.289703,158.050110 
	C136.144409,155.919235 137.524582,153.903961 138.904739,151.888687 
	C138.904739,151.888687 138.976120,151.997482 139.304306,151.948700 
	C143.176315,150.976440 145.839752,149.365417 145.004013,145.021729 
	C145.004013,145.021729 144.997681,144.997589 145.347839,145.001678 
	C149.140839,144.880203 151.262024,143.537582 150.625214,139.655182 
	C150.625214,139.655182 150.745499,139.615433 151.033905,139.659836 
	C151.813553,139.041855 152.304825,138.379471 152.796082,137.717087 
	C152.796082,137.717087 152.805786,137.887497 153.127136,137.876556 
	C154.470657,136.760345 155.492844,135.655075 156.515015,134.549789 
	C156.515015,134.549789 156.577194,134.586655 156.900742,134.609528 
	C157.353836,134.296600 157.483398,133.960815 157.612961,133.625031 
	C157.612961,133.625031 157.694061,133.597809 158.022858,133.693253 
	C159.533890,132.523880 160.716141,131.259064 161.898392,129.994263 
	C194.862762,105.117447 232.082016,96.158180 272.175018,104.365463 
	C327.868744,115.766312 363.987610,149.931656 380.616730,204.921356 
	C380.059143,208.600388 378.963379,209.561661 375.850159,208.024597 
	C369.336487,204.808640 362.652557,201.937561 356.027649,198.532898 
	C356.052490,193.699631 353.669739,191.953598 349.428528,191.981659 
	C339.794373,192.045425 330.157623,191.907578 320.526947,192.100204 
	C319.032898,192.130096 317.565094,193.471680 316.085571,194.154663 
	C316.086029,194.102661 316.181274,194.144440 315.823975,194.132111 
	C315.063782,194.829773 314.660919,195.539764 314.270691,196.192169 
	C314.283356,196.134583 314.347900,196.233246 314.060974,196.235931 
	C313.517944,196.500046 313.261871,196.761444 312.856323,197.362488 
	C310.556122,203.006500 308.886108,203.405380 304.629547,199.885742 
	C303.887115,199.271851 302.566559,199.357101 301.074890,199.132004 
	C261.179291,199.109344 221.721832,199.056076 182.264374,199.058395 
	C176.354752,199.058746 174.423828,201.618118 175.863403,207.268829 
	C180.665665,226.119034 185.590073,244.938812 190.252350,263.823425 
	C191.312668,268.118286 193.347382,270.651764 198.082916,271.120544 
	C199.173676,271.623505 200.053802,271.847839 201.009888,272.405762 
	C202.478104,273.465027 203.917435,274.119476 205.220352,274.980347 
	C205.462891,275.140625 205.157135,276.130737 204.637329,276.829590 
	C197.747772,276.941010 191.325226,276.986298 184.902878,276.968231 
	C182.242035,276.960754 179.592697,277.121124 179.959778,280.714172 
	C180.268524,283.736145 182.103317,285.379089 185.380295,284.903107 
	C187.611053,284.579071 189.852539,284.328827 192.287460,284.329956 
	C193.627304,284.766266 194.768906,284.918152 195.975159,285.416901 
	C197.222412,286.752167 198.282806,288.334412 199.612473,288.608063 
	C202.578751,289.218384 202.584763,290.921844 202.054352,293.112549 
	C202.027283,293.077118 202.094025,293.017944 201.865021,293.113220 
	C201.342743,293.383362 201.119827,293.623535 200.807159,294.237091 
	C192.132156,304.542114 196.056015,315.719879 209.033264,318.540222 
	C209.875824,319.466034 210.564117,320.206573 211.411377,320.626068 
	C222.946106,326.337372 234.553757,331.903412 246.042847,337.704498 
	C265.775848,347.668030 285.438293,357.771454 305.089844,367.926849 
	C305.049347,368.037567 304.990173,368.265747 304.990173,368.265747 
z"/>
<path fill="#1D81AD" opacity="1.000000" stroke="none" 
	d="
M305.130341,367.816132 
	C285.438293,357.771454 265.775848,347.668030 246.042847,337.704498 
	C234.553757,331.903412 222.946106,326.337372 211.411377,320.626068 
	C210.564117,320.206573 209.875824,319.466034 209.439972,318.487793 
	C216.998032,317.183075 221.264786,313.745758 222.708649,307.674408 
	C223.960648,302.409729 221.483429,296.309143 216.806122,293.404480 
	C211.974274,290.403870 207.028961,291.007080 202.081406,293.148010 
	C202.584763,290.921844 202.578751,289.218384 199.612473,288.608063 
	C198.282806,288.334412 197.222412,286.752167 196.453003,285.388916 
	C225.893860,285.008942 254.921539,284.986115 283.949066,285.043182 
	C285.675873,285.046570 287.428375,286.073090 289.121826,285.954041 
	C292.325775,285.728760 296.369934,286.482239 296.818970,281.297516 
	C296.793427,281.163330 297.010712,280.997803 297.380066,280.936401 
	C298.426453,278.185394 299.103485,275.495758 299.730286,272.823608 
	C299.680115,272.841034 299.645935,272.740417 300.052917,272.772705 
	C301.586670,268.146912 302.713440,263.488861 303.849274,258.890503 
	C303.858337,258.950195 303.739960,258.926270 304.081635,258.737854 
	C304.582458,257.274597 304.741608,255.999725 304.872131,254.530807 
	C304.843475,254.336731 305.032074,253.992676 305.384033,253.931885 
	C306.791962,252.465805 308.336761,251.207993 308.813385,249.627945 
	C310.317352,244.642197 311.573334,239.567047 312.623505,234.464386 
	C313.275391,231.296936 313.380432,228.016937 313.733521,224.844696 
	C313.736145,224.901917 313.645416,224.831955 314.000641,224.688965 
	C314.510193,223.309753 314.664520,222.073532 314.835693,220.890991 
	C314.852570,220.944687 314.752686,220.892776 315.082275,220.748962 
	C316.977814,215.810715 318.679535,211.054932 320.058716,206.207382 
	C320.886017,203.299606 322.052704,201.774231 325.486572,201.897263 
	C333.303558,202.177338 341.146271,202.188034 348.958527,201.848312 
	C350.996277,201.759689 352.960602,199.982422 355.228699,198.968323 
	C355.678680,198.945587 355.858612,198.935211 356.038544,198.924835 
	C362.652557,201.937561 369.336487,204.808640 375.850159,208.024597 
	C378.963379,209.561661 380.059143,208.600388 380.583069,205.305923 
	C382.524719,216.299713 385.736298,227.558853 385.679291,238.801422 
	C385.381073,297.591980 358.543945,340.540955 305.967926,367.820435 
	C305.452576,367.864990 305.130341,367.816132 305.130341,367.816132 
M277.726257,317.705566 
	C279.064728,317.048431 280.508575,316.544250 281.723053,315.707214 
	C286.497406,312.416870 288.566559,306.702179 287.090088,301.250946 
	C285.619476,295.821289 280.883972,291.847687 275.235535,291.303619 
	C269.871124,290.786926 264.298492,294.025330 261.999512,299.258026 
	C257.611023,309.246613 265.978546,320.063904 277.726257,317.705566 
z"/>
<path fill="#3F9CBB" opacity="1.000000" stroke="none" 
	d="
M127.389870,167.794464 
	C124.629692,174.442673 121.296722,181.117706 118.549690,188.025742 
	C112.525253,203.175583 107.863113,218.741470 108.078789,235.227600 
	C108.208488,245.141541 109.317192,255.041519 109.922653,264.951630 
	C110.012543,266.422760 109.753235,267.915222 109.392990,269.686493 
	C108.111450,258.636505 106.092987,247.281433 106.278763,235.962540 
	C106.681221,211.441681 113.844131,188.678726 127.389870,167.794464 
z"/>
<path fill="#3394BC" opacity="1.000000" stroke="none" 
	d="
M211.382782,377.098389 
	C213.248947,376.963745 215.531799,376.629272 217.599152,377.150116 
	C230.918930,380.505859 244.522827,380.661346 258.005585,379.751068 
	C265.868683,379.220245 273.567383,376.281738 281.345398,374.449188 
	C283.995972,373.824707 286.702881,373.407715 289.313446,372.652069 
	C293.771179,371.361725 298.173187,369.878906 302.818939,368.748474 
	C289.895569,375.915741 275.667267,379.116882 261.097351,380.718964 
	C244.474075,382.546814 227.941132,381.668884 211.382782,377.098389 
z"/>
<path fill="#3F9CBB" opacity="1.000000" stroke="none" 
	d="
M109.395798,272.387634 
	C110.227875,273.335846 111.239082,274.576477 111.840080,275.991394 
	C116.967957,288.063690 121.958237,300.194733 127.142578,312.242462 
	C128.400528,315.165741 130.224518,317.845459 131.612000,321.010010 
	C126.229103,311.990540 120.553291,302.819519 115.981598,293.127686 
	C112.961838,286.725922 111.528419,279.575897 109.395798,272.387634 
z"/>
<path fill="#3394BC" opacity="1.000000" stroke="none" 
	d="
M177.121292,363.330383 
	C180.389816,364.282532 183.870865,365.452759 187.290314,366.781494 
	C193.292511,369.113861 199.263657,371.526825 205.231659,373.945831 
	C206.435669,374.433838 207.567947,375.098816 208.844818,375.966125 
	C198.406250,372.039948 187.856171,367.829895 177.121292,363.330383 
z"/>
<path fill="#3394BC" opacity="1.000000" stroke="none" 
	d="
M162.031677,353.349670 
	C165.015656,352.276306 166.841537,354.088898 168.907471,356.163910 
	C171.269119,358.535980 174.214813,360.326599 176.935455,362.717102 
	C172.047836,359.921051 167.131485,356.777740 162.031677,353.349670 
z"/>
<path fill="#3F9CBB" opacity="1.000000" stroke="none" 
	d="
M144.695374,145.144287 
	C145.839752,149.365417 143.176315,150.976440 139.255524,151.905624 
	C140.714615,149.696503 142.550674,147.481674 144.695374,145.144287 
z"/>
<path fill="#3F9CBB" opacity="1.000000" stroke="none" 
	d="
M133.452194,158.639542 
	C131.945511,161.534027 130.139252,164.604462 127.967422,167.676910 
	C129.452118,164.724457 131.302368,161.769974 133.452194,158.639542 
z"/>
<path fill="#3F9CBB" opacity="1.000000" stroke="none" 
	d="
M137.139099,329.289429 
	C139.275558,331.205994 141.506851,333.445251 143.594162,336.039368 
	C141.378098,334.133514 139.306015,331.872772 137.139099,329.289429 
z"/>
<path fill="#3F9CBB" opacity="1.000000" stroke="none" 
	d="
M150.318909,139.755463 
	C151.262024,143.537582 149.140839,144.880203 145.359894,145.004868 
	C146.685379,143.287903 148.348984,141.571823 150.318909,139.755463 
z"/>
<path fill="#3F9CBB" opacity="1.000000" stroke="none" 
	d="
M138.610168,152.036469 
	C137.524582,153.903961 136.144409,155.919235 134.416626,157.966003 
	C135.484528,156.059738 136.900055,154.122009 138.610168,152.036469 
z"/>
<path fill="#3F9CBB" opacity="1.000000" stroke="none" 
	d="
M161.585846,130.054077 
	C160.716141,131.259064 159.533890,132.523880 157.993469,133.662170 
	C158.847946,132.395065 160.060623,131.254471 161.585846,130.054077 
z"/>
<path fill="#3F9CBB" opacity="1.000000" stroke="none" 
	d="
M133.677094,324.636536 
	C134.753769,325.622925 135.892838,326.930634 137.033401,328.597046 
	C135.936432,327.623169 134.837952,326.290497 133.677094,324.636536 
z"/>
<path fill="#3F9CBB" opacity="1.000000" stroke="none" 
	d="
M156.205627,134.611847 
	C155.492844,135.655075 154.470657,136.760345 153.087830,137.800812 
	C153.783508,136.715286 154.839874,135.694595 156.205627,134.611847 
z"/>
<path fill="#3F9CBB" opacity="1.000000" stroke="none" 
	d="
M143.656372,336.744812 
	C144.352936,337.108887 145.144211,337.759308 145.941315,338.759338 
	C145.215118,338.416351 144.483078,337.723755 143.656372,336.744812 
z"/>
<path fill="#3F9CBB" opacity="1.000000" stroke="none" 
	d="
M152.500549,137.801239 
	C152.304825,138.379471 151.813553,139.041855 150.985413,139.700577 
	C151.167358,139.093063 151.686188,138.489227 152.500549,137.801239 
z"/>
<path fill="#3F9CBB" opacity="1.000000" stroke="none" 
	d="
M131.569122,321.709290 
	C131.965469,321.797119 132.413544,322.166260 132.812408,322.879028 
	C132.382431,322.811981 132.001633,322.401276 131.569122,321.709290 
z"/>
<path fill="#3394BC" opacity="1.000000" stroke="none" 
	d="
M305.089844,367.926849 
	C305.130341,367.816132 305.452576,367.864990 305.613617,367.888977 
	C305.708191,368.149475 305.553619,368.286499 305.150574,368.294861 
	C304.990173,368.265747 305.049347,368.037567 305.089844,367.926849 
z"/>
<path fill="#3F9CBB" opacity="1.000000" stroke="none" 
	d="
M132.794846,323.448456 
	C133.051315,323.369232 133.367813,323.552979 133.686432,324.029297 
	C133.410660,324.118408 133.132767,323.914917 132.794846,323.448456 
z"/>
<path fill="#3F9CBB" opacity="1.000000" stroke="none" 
	d="
M157.373596,133.683746 
	C157.483398,133.960815 157.353836,134.296600 156.927277,134.584961 
	C156.641159,134.172989 156.809143,133.907959 157.373596,133.683746 
z"/>
<path fill="#EDFAFC" opacity="1.000000" stroke="none" 
	d="
M197.872284,270.841919 
	C193.347382,270.651764 191.312668,268.118286 190.252350,263.823425 
	C185.590073,244.938812 180.665665,226.119034 175.863403,207.268829 
	C174.423828,201.618118 176.354752,199.058746 182.264374,199.058395 
	C221.721832,199.056076 261.179291,199.109344 301.344666,199.431305 
	C302.609222,202.251938 304.178101,205.067368 303.563934,207.275604 
	C298.159760,226.706360 292.424316,246.046356 286.598053,265.356201 
	C286.031952,267.232391 284.193756,268.724762 282.480347,270.438416 
	C279.693481,270.522858 277.372406,270.593231 275.051178,270.600983 
	C249.324890,270.686890 223.598587,270.763092 197.872284,270.841919 
M288.052429,234.980194 
	C288.052429,234.980194 288.168884,235.153519 288.880127,234.838806 
	C289.347961,233.414780 289.815826,231.990753 290.396820,230.222366 
	C282.026672,230.222366 274.481384,230.222366 266.316742,230.122559 
	C265.901184,230.156006 265.485626,230.189468 264.221008,230.037384 
	C263.137909,230.690521 261.173553,231.276871 261.118103,232.007904 
	C260.812103,236.044205 260.971710,240.115799 260.971710,244.427490 
	C265.613525,244.427490 270.339478,244.427490 275.825989,244.605820 
	C276.857574,244.533264 277.889160,244.460709 279.750214,244.682739 
	C287.045868,245.068726 288.549103,243.368713 288.052429,234.980194 
M281.775055,259.713837 
	C281.948090,258.770203 282.121124,257.826569 282.610321,256.609100 
	C282.610321,256.609100 282.644867,256.192261 282.989746,255.554428 
	C283.349213,254.175156 283.708679,252.795868 284.128143,251.186295 
	C275.918091,251.186295 268.218079,251.186295 260.103638,251.186295 
	C260.103638,255.498581 260.103638,259.544037 260.103638,264.147064 
	C265.844574,264.147064 271.605957,263.929962 277.340240,264.230347 
	C280.658173,264.404175 281.305084,262.777252 281.260773,260.084656 
	C281.260773,260.084656 281.245026,260.195679 281.775055,259.713837 
M196.764740,261.141510 
	C196.764740,261.141510 196.727097,261.186035 196.572342,262.068298 
	C197.153503,262.749573 197.722977,264.011475 198.317612,264.023438 
	C205.210861,264.162201 212.107910,264.112122 218.704437,264.112122 
	C218.704437,259.330627 218.704437,255.245255 218.704437,250.938660 
	C210.215317,250.938660 202.164917,250.938660 193.344803,250.938660 
	C194.575943,254.704178 195.637115,257.949799 196.764740,261.141510 
M191.570068,242.058212 
	C191.570068,242.058212 191.545517,242.104324 191.632736,243.010773 
	C200.534058,243.571732 209.435379,244.132675 218.684814,244.715561 
	C218.365356,239.152527 218.114487,234.784119 217.858871,230.332733 
	C207.769958,230.332733 198.230865,230.332733 188.144562,230.332733 
	C189.347336,234.528885 190.431656,238.311768 191.570068,242.058212 
M225.249344,263.596588 
	C234.465134,263.596588 243.680908,263.596588 253.125488,263.596588 
	C253.420990,259.531036 253.716263,255.468689 254.054382,250.816864 
	C244.396576,250.816864 235.453354,250.800201 226.510773,250.867477 
	C226.076477,250.870743 225.647720,251.610718 225.096054,252.841782 
	C225.209274,254.233047 225.322479,255.624298 225.294846,257.749512 
	C225.477127,258.972321 225.659409,260.195129 225.623383,261.876434 
	C225.580307,262.211609 225.537231,262.546753 225.249344,263.596588 
M188.992188,223.892761 
	C198.535797,223.892761 208.079407,223.892761 217.925674,223.892761 
	C217.563492,217.266510 217.248871,211.510757 216.930313,205.682709 
	C205.133057,205.682709 193.682938,205.682709 181.933899,205.682709 
	C183.286301,211.006836 184.410660,215.838699 185.793045,220.595566 
	C186.147064,221.813797 187.316376,222.795090 188.992188,223.892761 
M294.926819,215.459534 
	C295.831116,212.207230 296.735382,208.954926 297.689209,205.524445 
	C285.546539,205.524445 274.157745,205.524445 262.253540,205.524445 
	C262.253540,211.684006 262.253540,217.541397 262.253540,223.887695 
	C269.533752,223.887695 276.803253,223.886230 284.072784,223.888077 
	C292.256622,223.890167 292.256622,223.891479 294.926819,215.459534 
M231.579559,205.228104 
	C228.967590,205.228104 226.355621,205.228104 223.174133,205.228104 
	C223.501907,211.619141 223.802261,217.475693 224.113083,223.536285 
	C234.623886,223.536285 244.771927,223.536285 255.346329,223.536285 
	C255.627716,217.323929 255.892761,211.472458 256.175568,205.228287 
	C247.770950,205.228287 240.165390,205.228287 231.579559,205.228104 
M248.469772,244.457123 
	C250.254883,244.457123 252.039978,244.457123 254.243805,244.457123 
	C254.514160,239.566910 254.764175,235.044510 255.022202,230.377014 
	C244.406601,230.377014 234.528397,230.377014 224.083694,230.377014 
	C224.353943,235.102112 224.604019,239.474487 224.889572,244.467117 
	C232.787704,244.467117 240.228897,244.467117 248.469772,244.457123 
z"/>
<path fill="#EBF9FB" opacity="1.000000" stroke="none" 
	d="
M297.010712,280.997803 
	C297.010712,280.997803 296.793427,281.163330 296.475983,281.499908 
	C293.686066,282.511353 291.217010,283.759430 288.740601,283.774231 
	C256.524078,283.966583 224.306519,283.984039 192.089218,284.045563 
	C189.852539,284.328827 187.611053,284.579071 185.380295,284.903107 
	C182.103317,285.379089 180.268524,283.736145 179.959778,280.714172 
	C179.592697,277.121124 182.242035,276.960754 184.902878,276.968231 
	C191.325226,276.986298 197.747772,276.941010 205.092789,276.901855 
	C231.000473,276.918182 255.985611,276.957825 280.970734,276.987701 
	C290.847076,276.999512 290.953949,277.020721 293.740204,267.446747 
	C300.567749,243.986221 307.286926,220.494141 314.192627,196.845459 
	C314.335541,196.676178 314.347900,196.233246 314.347900,196.233246 
	C314.347900,196.233246 314.283356,196.134583 314.541443,196.080353 
	C315.260132,195.398895 315.720703,194.771667 316.181274,194.144440 
	C316.181274,194.144440 316.086029,194.102661 316.499268,194.101044 
	C328.132751,193.865524 339.353149,193.482254 350.573212,193.492355 
	C353.775574,193.495239 354.561523,195.968384 353.278076,199.127075 
	C351.190247,199.607727 349.417877,200.033981 347.641571,200.050903 
	C339.835938,200.125183 332.024658,199.943008 324.226807,200.199585 
	C322.712952,200.249390 320.339752,201.533585 319.918121,202.776108 
	C317.902740,208.715393 316.422913,214.836380 314.752686,220.892776 
	C314.752686,220.892776 314.852570,220.944687 314.582428,221.142746 
	C314.089996,222.504517 313.867706,223.668243 313.645416,224.831955 
	C313.645416,224.831955 313.736145,224.901917 313.463257,225.088486 
	C310.470947,234.847595 307.751495,244.420135 305.032074,253.992676 
	C305.032074,253.992676 304.843475,254.336731 304.631989,254.815247 
	C304.193665,256.504608 303.966827,257.715454 303.739960,258.926270 
	C303.739960,258.926270 303.858337,258.950195 303.576538,259.140320 
	C302.078491,263.800415 300.862213,268.270416 299.645935,272.740417 
	C299.645935,272.740417 299.680115,272.841034 299.437286,273.037781 
	C298.466522,275.822296 297.738617,278.410065 297.010712,280.997803 
z"/>
<path fill="#2682A9" opacity="1.000000" stroke="none" 
	d="
M314.049683,197.014755 
	C307.286926,220.494141 300.567749,243.986221 293.740204,267.446747 
	C290.953949,277.020721 290.847076,276.999512 280.970734,276.987701 
	C255.985611,276.957825 231.000473,276.918182 205.559875,276.810150 
	C205.157135,276.130737 205.462891,275.140625 205.220352,274.980347 
	C203.917435,274.119476 202.478104,273.465027 201.485046,272.379150 
	C227.159058,272.013977 252.434036,272.040741 277.708466,271.934784 
	C279.456421,271.927460 281.200287,270.931488 282.946045,270.395264 
	C284.193756,268.724762 286.031952,267.232391 286.598053,265.356201 
	C292.424316,246.046356 298.159760,226.706360 303.563934,207.275604 
	C304.178101,205.067368 302.609222,202.251938 301.782806,199.418762 
	C302.566559,199.357101 303.887115,199.271851 304.629547,199.885742 
	C308.886108,203.405380 310.556122,203.006500 313.117279,197.358231 
	C313.701660,197.014465 313.875671,197.014618 314.049683,197.014755 
z"/>
<path fill="#F2FBFB" opacity="1.000000" stroke="none" 
	d="
M202.054352,293.112549 
	C207.028961,291.007080 211.974274,290.403870 216.806122,293.404480 
	C221.483429,296.309143 223.960648,302.409729 222.708649,307.674408 
	C221.264786,313.745758 216.998032,317.183075 209.359619,318.153259 
	C196.056015,315.719879 192.132156,304.542114 201.070251,294.186554 
	C201.693604,293.557922 201.893814,293.287933 202.094025,293.017944 
	C202.094025,293.017944 202.027283,293.077118 202.054352,293.112549 
z"/>
<path fill="#2A7898" opacity="1.000000" stroke="none" 
	d="
M192.287460,284.329956 
	C224.306519,283.984039 256.524078,283.966583 288.740601,283.774231 
	C291.217010,283.759430 293.686066,282.511353 296.501526,281.634094 
	C296.369934,286.482239 292.325775,285.728760 289.121826,285.954041 
	C287.428375,286.073090 285.675873,285.046570 283.949066,285.043182 
	C254.921539,284.986115 225.893860,285.008942 196.388367,285.042053 
	C194.768906,284.918152 193.627304,284.766266 192.287460,284.329956 
z"/>
<path fill="#1B7092" opacity="1.000000" stroke="none" 
	d="
M282.480347,270.438416 
	C281.200287,270.931488 279.456421,271.927460 277.708466,271.934784 
	C252.434036,272.040741 227.159058,272.013977 201.409058,272.045593 
	C200.053802,271.847839 199.173676,271.623505 198.082916,271.120544 
	C223.598587,270.763092 249.324890,270.686890 275.051178,270.600983 
	C277.372406,270.593231 279.693481,270.522858 282.480347,270.438416 
z"/>
<path fill="#3394BC" opacity="1.000000" stroke="none" 
	d="
M353.591736,198.884293 
	C354.561523,195.968384 353.775574,193.495239 350.573212,193.492355 
	C339.353149,193.482254 328.132751,193.865524 316.498810,194.153046 
	C317.565094,193.471680 319.032898,192.130096 320.526947,192.100204 
	C330.157623,191.907578 339.794373,192.045425 349.428528,191.981659 
	C353.669739,191.953598 356.052490,193.699631 356.027649,198.532913 
	C355.858612,198.935211 355.678680,198.945587 354.886780,198.950775 
	C354.047089,198.925140 353.819427,198.904709 353.591736,198.884293 
z"/>
<path fill="#3394BC" opacity="1.000000" stroke="none" 
	d="
M315.823975,194.132111 
	C315.720703,194.771667 315.260132,195.398895 314.528809,196.137939 
	C314.660919,195.539764 315.063782,194.829773 315.823975,194.132111 
z"/>
<path fill="#1D81AD" opacity="1.000000" stroke="none" 
	d="
M201.865021,293.113220 
	C201.893814,293.287933 201.693604,293.557922 201.230316,293.878448 
	C201.119827,293.623535 201.342743,293.383362 201.865021,293.113220 
z"/>
<path fill="#3394BC" opacity="1.000000" stroke="none" 
	d="
M314.192627,196.845459 
	C313.875671,197.014618 313.701660,197.014465 313.266724,197.018585 
	C313.261871,196.761444 313.517944,196.500046 314.060974,196.235931 
	C314.347900,196.233246 314.335541,196.676178 314.192627,196.845459 
z"/>
<path fill="#F2FBFA" opacity="1.000000" stroke="none" 
	d="
M277.325562,317.784058 
	C265.978546,320.063904 257.611023,309.246613 261.999512,299.258026 
	C264.298492,294.025330 269.871124,290.786926 275.235535,291.303619 
	C280.883972,291.847687 285.619476,295.821289 287.090088,301.250946 
	C288.566559,306.702179 286.497406,312.416870 281.723053,315.707214 
	C280.508575,316.544250 279.064728,317.048431 277.325562,317.784058 
z"/>
<path fill="#3783A4" opacity="1.000000" stroke="none" 
	d="
M353.278076,199.127075 
	C353.819427,198.904709 354.047089,198.925140 354.616699,198.963150 
	C352.960602,199.982422 350.996277,201.759689 348.958527,201.848312 
	C341.146271,202.188034 333.303558,202.177338 325.486572,201.897263 
	C322.052704,201.774231 320.886017,203.299606 320.058716,206.207382 
	C318.679535,211.054932 316.977814,215.810715 315.082275,220.748962 
	C316.422913,214.836380 317.902740,208.715393 319.918121,202.776108 
	C320.339752,201.533585 322.712952,200.249390 324.226807,200.199585 
	C332.024658,199.943008 339.835938,200.125183 347.641571,200.050903 
	C349.417877,200.033981 351.190247,199.607727 353.278076,199.127075 
z"/>
<path fill="#3783A4" opacity="1.000000" stroke="none" 
	d="
M305.384033,253.931885 
	C307.751495,244.420135 310.470947,234.847595 313.460663,225.031250 
	C313.380432,228.016937 313.275391,231.296936 312.623505,234.464386 
	C311.573334,239.567047 310.317352,244.642197 308.813385,249.627945 
	C308.336761,251.207993 306.791962,252.465805 305.384033,253.931885 
z"/>
<path fill="#2A7898" opacity="1.000000" stroke="none" 
	d="
M300.052917,272.772705 
	C300.862213,268.270416 302.078491,263.800415 303.567505,259.080597 
	C302.713440,263.488861 301.586670,268.146912 300.052917,272.772705 
z"/>
<path fill="#2A7898" opacity="1.000000" stroke="none" 
	d="
M297.380066,280.936401 
	C297.738617,278.410065 298.466522,275.822296 299.487488,273.020355 
	C299.103485,275.495758 298.426453,278.185394 297.380066,280.936401 
z"/>
<path fill="#2A7898" opacity="1.000000" stroke="none" 
	d="
M304.081635,258.737854 
	C303.966827,257.715454 304.193665,256.504608 304.660645,255.009338 
	C304.741608,255.999725 304.582458,257.274597 304.081635,258.737854 
z"/>
<path fill="#3783A4" opacity="1.000000" stroke="none" 
	d="
M314.000641,224.688965 
	C313.867706,223.668243 314.089996,222.504517 314.565552,221.089050 
	C314.664520,222.073532 314.510193,223.309753 314.000641,224.688965 
z"/>
<path fill="#2684AB" opacity="1.000000" stroke="none" 
	d="
M188.551666,223.888992 
	C187.316376,222.795090 186.147064,221.813797 185.793045,220.595566 
	C184.410660,215.838699 183.286301,211.006836 181.933899,205.682709 
	C193.682938,205.682709 205.133057,205.682709 216.930313,205.682709 
	C217.248871,211.510757 217.563492,217.266510 217.925674,223.892761 
	C208.079407,223.892761 198.535797,223.892761 188.551666,223.888992 
z"/>
<path fill="#2783AB" opacity="1.000000" stroke="none" 
	d="
M294.828522,215.849640 
	C292.256622,223.891479 292.256622,223.890167 284.072784,223.888077 
	C276.803253,223.886230 269.533752,223.887695 262.253540,223.887695 
	C262.253540,217.541397 262.253540,211.684006 262.253540,205.524445 
	C274.157745,205.524445 285.546539,205.524445 297.689209,205.524445 
	C296.735382,208.954926 295.831116,212.207230 294.828522,215.849640 
z"/>
<path fill="#2684AB" opacity="1.000000" stroke="none" 
	d="
M232.069687,205.228195 
	C240.165390,205.228287 247.770950,205.228287 256.175568,205.228287 
	C255.892761,211.472458 255.627716,217.323929 255.346329,223.536285 
	C244.771927,223.536285 234.623886,223.536285 224.113083,223.536285 
	C223.802261,217.475693 223.501907,211.619141 223.174133,205.228104 
	C226.355621,205.228104 228.967590,205.228104 232.069687,205.228195 
z"/>
<path fill="#1D80AA" opacity="1.000000" stroke="none" 
	d="
M265.070068,230.222916 
	C265.485626,230.189468 265.901184,230.156006 266.751038,230.531097 
	C269.029785,231.236801 270.880371,231.812683 272.717499,231.772644 
	C276.454742,231.691208 280.193756,231.363907 283.914917,230.974182 
	C287.151642,230.635193 288.477844,232.002335 288.168884,235.153519 
	C288.168884,235.153519 288.052429,234.980194 287.762024,235.091614 
	C284.958710,238.578812 284.870331,244.211746 278.920746,244.388153 
	C277.889160,244.460709 276.857574,244.533264 275.264832,244.197266 
	C272.616241,243.551010 270.532074,243.149673 268.440643,243.107056 
	C262.704834,242.990097 260.455933,240.179428 262.126678,234.551697 
	C262.599823,232.957962 264.061646,231.657730 265.070068,230.222916 
z"/>
<path fill="#2082AC" opacity="1.000000" stroke="none" 
	d="
M225.435699,257.015564 
	C225.322479,255.624298 225.209274,254.233047 225.610077,252.420410 
	C233.261444,251.998642 240.403564,252.156204 247.534439,251.941162 
	C252.127609,251.802658 251.966736,254.625504 252.054047,257.810608 
	C252.146469,261.182709 251.369461,263.168091 247.400482,263.044373 
	C240.103790,262.816956 232.796829,262.917877 225.494156,262.881927 
	C225.537231,262.546753 225.580307,262.211609 225.778107,261.294617 
	C225.767105,259.480377 225.601395,258.247955 225.435699,257.015564 
z"/>
<path fill="#1D81AE" opacity="1.000000" stroke="none" 
	d="
M282.644897,256.192261 
	C282.644867,256.192261 282.610321,256.609100 282.125244,256.950165 
	C281.508423,258.259369 281.376740,259.227539 281.245026,260.195679 
	C281.245026,260.195679 281.260773,260.084656 280.938354,260.243835 
	C278.810822,261.266418 277.067566,262.643829 275.185760,262.870392 
	C272.489929,263.194885 269.646698,262.286560 266.948730,262.603943 
	C261.408875,263.255646 260.324738,262.283508 261.564789,256.849274 
	C261.918640,255.298508 262.312012,253.756760 262.689941,252.199860 
	C269.118195,252.199860 275.202057,252.199860 281.201324,252.199860 
	C281.734314,253.673920 282.189606,254.933090 282.644897,256.192261 
z"/>
<path fill="#3A829D" opacity="1.000000" stroke="none" 
	d="
M248.069916,244.462128 
	C240.228897,244.467117 232.787704,244.467117 224.889572,244.467117 
	C224.604019,239.474487 224.353943,235.102112 224.083694,230.377014 
	C234.528397,230.377014 244.406601,230.377014 255.022202,230.377014 
	C254.764175,235.044510 254.514160,239.566910 254.243805,244.457123 
	C252.039978,244.457123 250.254883,244.457123 248.069916,244.462128 
M251.140305,241.818222 
	C251.962585,238.849609 252.784851,235.881012 253.862961,231.988831 
	C244.689865,231.988831 236.908493,232.063126 229.129700,231.954132 
	C225.776169,231.907166 225.666336,234.092484 226.051697,236.272949 
	C226.469482,238.636795 224.017639,242.746155 228.715408,242.886246 
	C235.983521,243.102997 243.272278,242.627487 251.140305,241.818222 
z"/>
<path fill="#3B7F9B" opacity="1.000000" stroke="none" 
	d="
M191.515961,242.094635 
	C190.431656,238.311768 189.347336,234.528885 188.144562,230.332733 
	C198.230865,230.332733 207.769958,230.332733 217.858871,230.332733 
	C218.114487,234.784119 218.365356,239.152527 218.684814,244.715561 
	C209.435379,244.132675 200.534058,243.571732 192.037323,242.656219 
	C198.713165,242.533524 204.985413,242.741669 211.255234,243.006958 
	C214.515488,243.144913 217.081360,242.989883 217.105759,238.466995 
	C217.128342,234.275848 215.560394,232.152924 211.477722,232.040924 
	C207.000137,231.918076 202.516983,231.992355 198.036255,231.990234 
	C191.043976,231.986908 191.082336,231.985687 191.890732,238.687347 
	C192.023987,239.791977 191.653595,240.957336 191.515961,242.094635 
z"/>
<path fill="#2F7793" opacity="1.000000" stroke="none" 
	d="
M196.698273,261.195404 
	C195.637115,257.949799 194.575943,254.704178 193.344803,250.938660 
	C202.164917,250.938660 210.215317,250.938660 218.704437,250.938660 
	C218.704437,255.245255 218.704437,259.330627 218.704437,264.112122 
	C212.107910,264.112122 205.210861,264.162201 198.317612,264.023438 
	C197.722977,264.011475 197.153503,262.749573 197.020325,261.684784 
	C202.116409,261.864471 206.777267,262.340302 211.408981,263.015900 
	C215.863602,263.665649 218.004456,261.789490 217.944473,257.385498 
	C217.888855,253.300385 215.966339,251.312576 211.674149,251.964798 
	C210.211014,252.187134 208.685425,251.996475 207.188370,251.997925 
	C197.612030,252.007172 197.612030,252.007477 196.698273,261.195404 
z"/>
<path fill="#2F7793" opacity="1.000000" stroke="none" 
	d="
M225.371750,263.239258 
	C232.796829,262.917877 240.103790,262.816956 247.400482,263.044373 
	C251.369461,263.168091 252.146469,261.182709 252.054047,257.810608 
	C251.966736,254.625504 252.127609,251.802658 247.534439,251.941162 
	C240.403564,252.156204 233.261444,251.998642 225.670242,252.003326 
	C225.647720,251.610718 226.076477,250.870743 226.510773,250.867477 
	C235.453354,250.800201 244.396576,250.816864 254.054382,250.816864 
	C253.716263,255.468689 253.420990,259.531036 253.125488,263.596588 
	C243.680908,263.596588 234.465134,263.596588 225.371750,263.239258 
z"/>
<path fill="#337995" opacity="1.000000" stroke="none" 
	d="
M282.817322,255.873352 
	C282.189606,254.933090 281.734314,253.673920 281.201324,252.199860 
	C275.202057,252.199860 269.118195,252.199860 262.689941,252.199860 
	C262.312012,253.756760 261.918640,255.298508 261.564789,256.849274 
	C260.324738,262.283508 261.408875,263.255646 266.948730,262.603943 
	C269.646698,262.286560 272.489929,263.194885 275.185760,262.870392 
	C277.067566,262.643829 278.810822,261.266418 280.983154,260.277588 
	C281.305084,262.777252 280.658173,264.404175 277.340240,264.230347 
	C271.605957,263.929962 265.844574,264.147064 260.103638,264.147064 
	C260.103638,259.544037 260.103638,255.498581 260.103638,251.186295 
	C268.218079,251.186295 275.918091,251.186295 284.128143,251.186295 
	C283.708679,252.795868 283.349213,254.175156 282.817322,255.873352 
z"/>
<path fill="#5090AB" opacity="1.000000" stroke="none" 
	d="
M264.645508,230.130142 
	C264.061646,231.657730 262.599823,232.957962 262.126678,234.551697 
	C260.455933,240.179428 262.704834,242.990097 268.440643,243.107056 
	C270.532074,243.149673 272.616241,243.551010 274.884583,244.108093 
	C270.339478,244.427490 265.613525,244.427490 260.971710,244.427490 
	C260.971710,240.115799 260.812103,236.044205 261.118103,232.007904 
	C261.173553,231.276871 263.137909,230.690521 264.645508,230.130142 
z"/>
<path fill="#5090AB" opacity="1.000000" stroke="none" 
	d="
M288.524506,234.996155 
	C288.477844,232.002335 287.151642,230.635193 283.914917,230.974182 
	C280.193756,231.363907 276.454742,231.691208 272.717499,231.772644 
	C270.880371,231.812683 269.029785,231.236801 267.060699,230.581009 
	C274.481384,230.222366 282.026672,230.222366 290.396820,230.222366 
	C289.815826,231.990753 289.347961,233.414780 288.524506,234.996155 
z"/>
<path fill="#5090AB" opacity="1.000000" stroke="none" 
	d="
M279.335480,244.535446 
	C284.870331,244.211746 284.958710,238.578812 287.827362,235.174545 
	C288.549103,243.368713 287.045868,245.068726 279.335480,244.535446 
z"/>
<path fill="#2F7793" opacity="1.000000" stroke="none" 
	d="
M225.365265,257.382538 
	C225.601395,258.247955 225.767105,259.480377 225.887268,261.065369 
	C225.659409,260.195129 225.477127,258.972321 225.365265,257.382538 
z"/>
<path fill="#337995" opacity="1.000000" stroke="none" 
	d="
M281.510040,259.954773 
	C281.376740,259.227539 281.508423,258.259369 281.967163,257.087097 
	C282.121124,257.826569 281.948090,258.770203 281.510040,259.954773 
z"/>
<path fill="#1D81AE" opacity="1.000000" stroke="none" 
	d="
M250.846298,242.131866 
	C243.272278,242.627487 235.983521,243.102997 228.715408,242.886246 
	C224.017639,242.746155 226.469482,238.636795 226.051697,236.272949 
	C225.666336,234.092484 225.776169,231.907166 229.129700,231.954132 
	C236.908493,232.063126 244.689865,231.988831 253.862961,231.988831 
	C252.784851,235.881012 251.962585,238.849609 250.846298,242.131866 
z"/>
<path fill="#1C81AE" opacity="1.000000" stroke="none" 
	d="
M191.543030,242.076416 
	C191.653595,240.957336 192.023987,239.791977 191.890732,238.687347 
	C191.082336,231.985687 191.043976,231.986908 198.036255,231.990234 
	C202.516983,231.992355 207.000137,231.918076 211.477722,232.040924 
	C215.560394,232.152924 217.128342,234.275848 217.105759,238.466995 
	C217.081360,242.989883 214.515488,243.144913 211.255234,243.006958 
	C204.985413,242.741669 198.713165,242.533524 191.993713,242.203003 
	C191.545517,242.104324 191.570068,242.058212 191.543030,242.076416 
z"/>
<path fill="#1E82AD" opacity="1.000000" stroke="none" 
	d="
M196.731506,261.168457 
	C197.612030,252.007477 197.612030,252.007172 207.188370,251.997925 
	C208.685425,251.996475 210.211014,252.187134 211.674149,251.964798 
	C215.966339,251.312576 217.888855,253.300385 217.944473,257.385498 
	C218.004456,261.789490 215.863602,263.665649 211.408981,263.015900 
	C206.777267,262.340302 202.116409,261.864471 197.097687,261.243652 
	C196.727097,261.186035 196.764740,261.141510 196.731506,261.168457 
z"/>
</svg>